<svg width="47" height="48" viewBox="0 0 47 48" fill="none" xmlns="http://www.w3.org/2000/svg">
<rect x="0.5" y="0.5" width="46" height="47" rx="11.5" fill="white" stroke="#1F3965"/>
<path d="M23.4681 13C20.7134 13.003 18.026 14.4746 16.5709 16.8595C13.0493 16.8287 10.9245 19.9036 11.0021 22.5361C11.0021 24.9695 12.4871 27.0387 14.5799 27.8413C14.7782 28.3158 15.0863 28.7261 15.4607 29.0615C14.7641 29.6838 14.3133 30.5867 14.3133 31.603C14.3133 33.4693 15.8037 35 17.6229 35H29.2033C31.0225 35 32.5146 33.4693 32.5146 31.603C32.5146 30.5869 32.0635 29.6838 31.3672 29.0615C31.6965 28.7664 31.9666 28.4093 32.1623 28.0038C33.8103 27.4551 35 25.8567 35 23.9834C35 21.8527 33.4736 20.0966 31.5498 19.8106C30.7761 15.8595 27.4224 13.0049 23.4681 13ZM23.4681 14.6977C26.8028 14.7018 29.6042 17.2623 30.0226 20.7075C30.0737 21.1344 30.4275 21.4535 30.8468 21.4518H30.9147C32.2706 21.4518 33.3452 22.5621 33.3452 23.9834C33.3452 24.7829 32.9987 25.482 32.458 25.9414C32.1887 24.3466 30.8311 23.1197 29.2033 23.1197H17.6229C16.0227 23.1197 14.679 24.3034 14.3779 25.8585C13.3429 25.1528 12.6568 23.9402 12.6568 22.5361C12.6568 20.3125 14.3574 18.5572 16.4868 18.5572H17.025C17.3224 18.5584 17.5976 18.3957 17.7457 18.1311C18.9296 16.0044 21.1076 14.7002 23.4681 14.6977ZM23.4018 16.3141C23.293 16.316 23.1856 16.34 23.0859 16.3846C22.9861 16.4291 22.8959 16.4934 22.8204 16.5738C22.7449 16.6542 22.6856 16.7491 22.6459 16.853C22.6061 16.9569 22.5868 17.0679 22.5889 17.1795V18.025H21.7583C21.7319 18.0237 21.7055 18.0237 21.6791 18.025C21.4631 18.0406 21.2616 18.1423 21.1178 18.3084C20.974 18.4745 20.8993 18.6917 20.9096 18.9136C20.92 19.1355 21.0146 19.3444 21.1732 19.4956C21.3318 19.6468 21.5418 19.7283 21.7583 19.7227H22.5889V20.5682C22.5865 20.6813 22.6061 20.7937 22.6466 20.8988C22.6871 21.004 22.7476 21.0998 22.8247 21.1807C22.9018 21.2615 22.9938 21.3257 23.0954 21.3696C23.197 21.4134 23.3061 21.436 23.4163 21.436C23.5266 21.436 23.6357 21.4134 23.7373 21.3696C23.8389 21.3257 23.9309 21.2615 24.008 21.1807C24.0851 21.0998 24.1456 21.004 24.1861 20.8988C24.2266 20.7937 24.2462 20.6813 24.2437 20.5682V19.7227H25.0679C25.1781 19.7252 25.2877 19.7051 25.3902 19.6636C25.4927 19.622 25.5861 19.5599 25.6649 19.4808C25.7437 19.4018 25.8063 19.3073 25.8491 19.2031C25.8918 19.0989 25.9139 18.9869 25.9139 18.8739C25.9139 18.7608 25.8918 18.6488 25.8491 18.5446C25.8063 18.4404 25.7437 18.3459 25.6649 18.2669C25.5861 18.1878 25.4927 18.1257 25.3902 18.0841C25.2877 18.0426 25.1781 18.0225 25.0679 18.025H24.2437V17.1795C24.2459 17.0654 24.2256 16.952 24.1841 16.8461C24.1426 16.7402 24.0807 16.644 24.0021 16.5632C23.9235 16.4824 23.8298 16.4187 23.7267 16.3759C23.6235 16.3331 23.513 16.3121 23.4018 16.3141ZM17.6229 24.8173H29.2033C30.1344 24.8173 30.8581 25.5598 30.8581 26.515C30.8581 27.4702 30.1344 28.2143 29.2033 28.2143H17.6229C16.6918 28.2143 15.9681 27.4702 15.9681 26.515C15.9681 25.5598 16.6918 24.8173 17.6229 24.8173ZM18.4471 25.6629C18.3369 25.6603 18.2273 25.6804 18.1247 25.722C18.0222 25.7635 17.9288 25.8256 17.85 25.9047C17.7712 25.9838 17.7086 26.0782 17.6658 26.1824C17.6231 26.2866 17.6011 26.3986 17.6011 26.5117C17.6011 26.6248 17.6231 26.7367 17.6658 26.841C17.7086 26.9452 17.7712 27.0396 17.85 27.1187C17.9288 27.1978 18.0222 27.2599 18.1247 27.3014C18.2273 27.3429 18.3369 27.363 18.4471 27.3605H21.7583C21.8685 27.363 21.9781 27.3429 22.0806 27.3014C22.1831 27.2599 22.2766 27.1978 22.3554 27.1187C22.4342 27.0396 22.4968 26.9452 22.5395 26.841C22.5823 26.7367 22.6043 26.6248 22.6043 26.5117C22.6043 26.3986 22.5823 26.2866 22.5395 26.1824C22.4968 26.0782 22.4342 25.9838 22.3554 25.9047C22.2766 25.8256 22.1831 25.7635 22.0806 25.722C21.9781 25.6804 21.8685 25.6603 21.7583 25.6629H18.4471ZM25.9002 25.6645C25.7919 25.6645 25.6848 25.6865 25.5848 25.7291C25.4848 25.7718 25.3939 25.8343 25.3174 25.9131C25.2409 25.992 25.1801 26.0855 25.1387 26.1885C25.0973 26.2915 25.076 26.4019 25.076 26.5134C25.076 26.6249 25.0973 26.7352 25.1387 26.8382C25.1801 26.9412 25.2409 27.0348 25.3174 27.1136C25.3939 27.1924 25.4848 27.255 25.5848 27.2976C25.6848 27.3403 25.7919 27.3622 25.9002 27.3622C26.0084 27.3622 26.1156 27.3403 26.2156 27.2976C26.3155 27.255 26.4064 27.1924 26.4829 27.1136C26.5595 27.0348 26.6202 26.9412 26.6616 26.8382C26.703 26.7352 26.7243 26.6249 26.7243 26.5134C26.7243 26.4019 26.703 26.2915 26.6616 26.1885C26.6202 26.0855 26.5595 25.992 26.4829 25.9131C26.4064 25.8343 26.3155 25.7718 26.2156 25.7291C26.1156 25.6865 26.0084 25.6645 25.9002 25.6645ZM28.3824 25.6645C28.2741 25.6645 28.167 25.6865 28.067 25.7291C27.967 25.7718 27.8761 25.8343 27.7996 25.9131C27.7231 25.992 27.6624 26.0855 27.6209 26.1885C27.5795 26.2915 27.5582 26.4019 27.5582 26.5134C27.5582 26.6249 27.5795 26.7352 27.6209 26.8382C27.6624 26.9412 27.7231 27.0348 27.7996 27.1136C27.8761 27.1924 27.967 27.255 28.067 27.2976C28.167 27.3403 28.2741 27.3622 28.3824 27.3622C28.4906 27.3622 28.5978 27.3403 28.6978 27.2976C28.7978 27.255 28.8886 27.1924 28.9651 27.1136C29.0417 27.0348 29.1024 26.9412 29.1438 26.8382C29.1852 26.7352 29.2065 26.6249 29.2065 26.5134C29.2065 26.4019 29.1852 26.2915 29.1438 26.1885C29.1024 26.0855 29.0417 25.992 28.9651 25.9131C28.8886 25.8343 28.7978 25.7718 28.6978 25.7291C28.5978 25.6865 28.4906 25.6645 28.3824 25.6645ZM17.6229 29.912H29.2033C30.1344 29.912 30.8581 30.6479 30.8581 31.6031C30.8581 32.5582 30.1344 33.3007 29.2033 33.3007H17.6229C16.6918 33.3007 15.9681 32.5582 15.9681 31.603C15.9681 30.6478 16.6918 29.912 17.6229 29.912ZM18.3679 30.7575C18.1519 30.7731 17.9504 30.8748 17.8066 31.0409C17.6627 31.207 17.588 31.4242 17.5983 31.6461C17.6087 31.868 17.7033 32.0769 17.8619 32.2281C18.0206 32.3794 18.2306 32.4609 18.4471 32.4552H21.7583C21.8685 32.4577 21.9781 32.4376 22.0806 32.3961C22.1831 32.3545 22.2765 32.2924 22.3553 32.2133C22.4341 32.1343 22.4967 32.0398 22.5394 31.9356C22.5821 31.8314 22.6042 31.7194 22.6042 31.6064C22.6042 31.4933 22.5821 31.3814 22.5394 31.2771C22.4967 31.1729 22.4341 31.0785 22.3553 30.9994C22.2765 30.9204 22.1831 30.8582 22.0806 30.8167C21.9781 30.7752 21.8685 30.755 21.7583 30.7575H18.4471C18.4207 30.7562 18.3943 30.7562 18.3679 30.7575ZM25.9002 30.7575C25.7919 30.7575 25.6848 30.7795 25.5848 30.8221C25.4848 30.8648 25.3939 30.9273 25.3174 31.0061C25.2409 31.085 25.1801 31.1785 25.1387 31.2815C25.0973 31.3845 25.076 31.4949 25.076 31.6064C25.076 31.7178 25.0973 31.8282 25.1387 31.9312C25.1801 32.0342 25.2409 32.1278 25.3174 32.2066C25.3939 32.2854 25.4848 32.348 25.5848 32.3906C25.6848 32.4333 25.7919 32.4552 25.9002 32.4552C26.0084 32.4552 26.1156 32.4333 26.2156 32.3906C26.3155 32.348 26.4064 32.2854 26.4829 32.2066C26.5595 32.1278 26.6202 32.0342 26.6616 31.9312C26.703 31.8282 26.7243 31.7178 26.7243 31.6064C26.7243 31.4949 26.703 31.3845 26.6616 31.2815C26.6202 31.1785 26.5595 31.085 26.4829 31.0061C26.4064 30.9273 26.3155 30.8648 26.2156 30.8221C26.1156 30.7795 26.0084 30.7575 25.9002 30.7575ZM28.3824 30.7575C28.2741 30.7575 28.167 30.7795 28.067 30.8221C27.967 30.8648 27.8761 30.9273 27.7996 31.0061C27.7231 31.085 27.6624 31.1785 27.6209 31.2815C27.5795 31.3845 27.5582 31.4949 27.5582 31.6064C27.5582 31.7178 27.5795 31.8282 27.6209 31.9312C27.6624 32.0342 27.7231 32.1278 27.7996 32.2066C27.8761 32.2854 27.967 32.348 28.067 32.3906C28.167 32.4333 28.2741 32.4552 28.3824 32.4552C28.4906 32.4552 28.5978 32.4333 28.6978 32.3906C28.7978 32.348 28.8886 32.2854 28.9651 32.2066C29.0417 32.1278 29.1024 32.0342 29.1438 31.9312C29.1852 31.8282 29.2065 31.7178 29.2065 31.6064C29.2065 31.4949 29.1852 31.3845 29.1438 31.2815C29.1024 31.1785 29.0417 31.085 28.9651 31.0061C28.8886 30.9273 28.7978 30.8648 28.6978 30.8221C28.5978 30.7795 28.4906 30.7575 28.3824 30.7575Z" fill="#1F3965" stroke="white" stroke-width="0.5"/>
</svg>
