<svg width="47" height="48" viewBox="0 0 47 48" fill="none" xmlns="http://www.w3.org/2000/svg">
<rect x="0.5" y="0.5" width="46" height="47" rx="11.5" fill="white" stroke="#1F3965"/>
<path d="M35.381 13.3643H31.0724L24.3253 10.0892C24.1285 9.99075 23.9043 9.99075 23.702 10.0892L16.9549 13.3643H12.6136C11.1756 13.3643 10 14.5344 10 15.9779V30.4672C10 31.9107 11.1756 33.0808 12.6136 33.0808H18.874V35.1749L17.5509 36.7113H17.026C16.7963 36.7113 16.6159 36.8972 16.6159 37.1214C16.6159 37.3456 16.8018 37.5315 17.026 37.5315H17.7422H30.2578H30.9358C31.1654 37.5315 31.3458 37.3456 31.3458 37.1214C31.3458 36.8972 31.1599 36.7113 30.9358 36.7113H30.4491L29.126 35.1749V33.0808H35.3864C36.8299 33.0808 38 31.9052 38 30.4672V15.9779C37.9945 14.5344 36.819 13.3643 35.381 13.3643ZM30.974 22.7633C31.3896 22.7633 31.7286 23.1022 31.7286 23.5178V24.4582H30.225V23.5178C30.225 23.0968 30.5585 22.7633 30.974 22.7633ZM24.0137 10.8492L30.0336 13.7744L24.0137 16.6996L23.9098 16.6504C23.8934 16.6394 23.8715 16.623 23.8496 16.6121L17.9938 13.7744L24.0137 10.8492ZM21.9852 16.623C22.0016 16.634 22.018 16.6449 22.0344 16.6504L23.702 17.4596C23.8004 17.5088 23.9043 17.5307 24.0137 17.5307C24.1176 17.5307 24.2269 17.5088 24.3253 17.4596L28.8088 15.2835V19.7779C28.8088 19.8544 28.7487 19.9255 28.6721 19.9365L28.2293 20.0021C25.4517 20.4121 22.6303 20.4121 19.8528 20.0021L19.4099 19.9365C19.3333 19.9255 19.2732 19.8544 19.2732 19.7779V15.3108L21.9852 16.623ZM29.3556 36.7113H18.6389L19.481 35.7381H27.2779H27.4583H28.5245L29.3556 36.7113ZM20.1426 33.0808H25.6922H28.2949V34.9124H27.4528H27.2724H19.6997V33.0808H20.1426ZM35.381 32.2606H25.6922H20.1426H12.6136C11.7661 32.2606 11.0553 31.6701 10.8694 30.8773H37.1197C36.9393 31.6701 36.2285 32.2606 35.381 32.2606ZM37.1744 30.0571H10.8202V15.9779C10.8202 14.9882 11.6239 14.1845 12.6136 14.1845H16.9549L18.4476 14.9117V19.7779C18.4476 20.2591 18.8084 20.6801 19.2896 20.7511L19.7325 20.8168C21.1595 21.0245 22.603 21.1284 24.041 21.1284C25.479 21.1284 26.9225 21.0245 28.3495 20.8168L28.7924 20.7511C29.2736 20.6801 29.6344 20.2645 29.6344 19.7779V14.8843L30.5694 14.4305V21.9923C29.9024 22.1727 29.4048 22.7851 29.4048 23.5123V24.5293C29.4048 24.9394 29.7383 25.2729 30.1484 25.2729H31.8051C32.2152 25.2729 32.5487 24.9394 32.5487 24.5293V23.5123C32.5487 22.7851 32.0566 22.1727 31.3841 21.9923V14.1845H35.3755C36.3652 14.1845 37.1689 14.9882 37.1689 15.9779V30.0571H37.1744Z" fill="#1F3965"/>
<path d="M21.5808 26.2735H26.447C26.9992 26.2735 27.4531 25.8197 27.4531 25.2675V23.9005C27.4531 23.3483 26.9992 22.8945 26.447 22.8945H21.5808C21.0285 22.8945 20.5747 23.3483 20.5747 23.9005V25.2675C20.5747 25.8197 21.0231 26.2735 21.5808 26.2735ZM21.3949 23.9005C21.3949 23.8021 21.4769 23.7201 21.5753 23.7201H26.4415C26.5399 23.7201 26.622 23.8021 26.622 23.9005V25.2675C26.622 25.3659 26.5399 25.4479 26.4415 25.4479H21.5753C21.4769 25.4479 21.3949 25.3659 21.3949 25.2675V23.9005Z" fill="#1F3965"/>
</svg>
