<svg width="48" height="48" viewBox="0 0 48 48" fill="none" xmlns="http://www.w3.org/2000/svg">
<rect x="0.5" y="0.5" width="47" height="47" rx="11.5" fill="white" stroke="#1F3965"/>
<path d="M39.478 29.174C39.2824 28.6402 38.8834 28.2057 38.3683 27.9654C37.8532 27.7251 37.2638 27.6985 36.7292 27.8916L31.7579 29.7009C31.7024 29.4513 31.5999 29.2146 31.4559 29.0033C31.2942 28.7716 31.0884 28.5741 30.8503 28.422C30.6122 28.2699 30.3465 28.1662 30.0683 28.1169L29.6873 28.0472H35.6249C36.0519 28.0472 36.4613 27.8776 36.7632 27.5757C37.065 27.2738 37.2346 26.8644 37.2346 26.4375V24.2912C37.2346 24.1489 37.1781 24.0124 37.0775 23.9118C36.9769 23.8112 36.8404 23.7547 36.6981 23.7547H35.6249V11.4137C35.6249 10.9868 35.4554 10.5774 35.1535 10.2755C34.8516 9.97362 34.4422 9.80402 34.0153 9.80402H14.699C14.2721 9.80402 13.8626 9.97362 13.5608 10.2755C13.2589 10.5774 13.0893 10.9868 13.0893 11.4137V23.7547H12.0162C11.8739 23.7547 11.7374 23.8112 11.6368 23.9118C11.5361 24.0124 11.4796 24.1489 11.4796 24.2912V26.4375C11.4796 26.8644 11.6492 27.2738 11.9511 27.5757C12.253 27.8776 12.6624 28.0472 13.0893 28.0472H17.9527C17.3315 28.3284 16.7376 28.6663 16.1783 29.0564L14.4946 30.2369L13.8791 29.3575C13.8387 29.2997 13.7873 29.2505 13.7279 29.2126C13.6685 29.1747 13.6022 29.1489 13.5327 29.1366C13.4633 29.1244 13.3922 29.1259 13.3234 29.1411C13.2546 29.1564 13.1894 29.185 13.1317 29.2255L7.85727 32.9186C7.74113 32.9999 7.66188 33.1239 7.63685 33.2634C7.61182 33.403 7.64303 33.5468 7.72367 33.6634L13.2653 41.575C13.3057 41.6328 13.3571 41.682 13.4165 41.7199C13.4759 41.7578 13.5423 41.7836 13.6117 41.7958C13.6811 41.8081 13.7522 41.8066 13.821 41.7913C13.8898 41.7761 13.955 41.7474 14.0127 41.707L19.2871 38.0138C19.3449 37.9734 19.394 37.922 19.4319 37.8625C19.4697 37.8031 19.4955 37.7367 19.5077 37.6673C19.5199 37.5979 19.5183 37.5268 19.503 37.458C19.4877 37.3892 19.459 37.3241 19.4186 37.2664L19.1138 36.8307C20.1494 36.124 21.4209 35.8516 22.6551 36.072L23.6129 36.2373C24.8192 36.451 26.0605 36.3429 27.2116 35.9239L38.1945 31.9265C38.4596 31.8301 38.703 31.6824 38.9109 31.4918C39.1188 31.3013 39.2871 31.0716 39.4062 30.816C39.5253 30.5604 39.5928 30.2838 39.605 30.002C39.6171 29.7203 39.5736 29.4389 39.4769 29.174H39.478ZM14.1624 11.4137C14.1624 11.2714 14.219 11.1349 14.3196 11.0343C14.4202 10.9337 14.5567 10.8771 14.699 10.8771H34.0153C34.1576 10.8771 34.294 10.9337 34.3947 11.0343C34.4953 11.1349 34.5518 11.2714 34.5518 11.4137V23.7547H14.1624V11.4137ZM22.7474 24.8278H25.9668V25.3644H22.7474V24.8278ZM12.5527 26.4375V24.8278H21.6743V25.3644C21.6743 25.649 21.7874 25.9219 21.9886 26.1232C22.1899 26.3244 22.4628 26.4375 22.7474 26.4375H25.9668C26.2514 26.4375 26.5244 26.3244 26.7256 26.1232C26.9269 25.9219 27.0399 25.649 27.0399 25.3644V24.8278H36.1615V26.4375C36.1615 26.5798 36.105 26.7163 36.0044 26.8169C35.9037 26.9175 35.7673 26.974 35.6249 26.974H13.0893C12.947 26.974 12.8105 26.9175 12.7099 26.8169C12.6093 26.7163 12.5527 26.5798 12.5527 26.4375ZM13.8367 40.5201L8.91215 33.4874L13.3077 30.408L18.2317 37.4424L13.8367 40.5201ZM38.5186 30.0958C38.4874 30.282 38.4069 30.4564 38.2855 30.601C38.164 30.7455 38.0061 30.8549 37.8281 30.9178L26.8457 34.9152C25.8711 35.2697 24.8203 35.3611 23.7991 35.1802L22.8408 35.0144C21.3264 34.7436 19.7662 35.0804 18.4984 35.9518L15.1105 31.1131L16.7943 29.9327C17.6655 29.3211 18.6275 28.8503 19.645 28.5376L19.7432 28.5108C21.2805 28.0422 22.9066 27.9426 24.4897 28.2199L29.8789 29.1691C30.0186 29.1936 30.1521 29.2453 30.2717 29.3213C30.3914 29.3974 30.495 29.4963 30.5764 29.6123C30.6719 29.7486 30.7321 29.9064 30.7519 30.0716C30.7819 30.2223 30.7742 30.3781 30.7293 30.525C30.6557 30.7817 30.4889 31.0017 30.2617 31.142C30.0345 31.2823 29.7631 31.3328 29.5006 31.2837L23.7004 30.2589L23.5136 31.3159L29.3123 32.3397C29.8312 32.432 30.366 32.3307 30.8152 32.055C31.2644 31.7792 31.5968 31.3483 31.7494 30.8437L37.0941 28.8987C37.362 28.802 37.6573 28.8154 37.9153 28.9361C38.1733 29.0568 38.3729 29.2749 38.4703 29.5426C38.5373 29.7189 38.5553 29.91 38.5224 30.0958H38.5186Z" fill="#1F3965"/>
<path d="M24.3567 15.1697C23.9322 15.1697 23.5173 15.2955 23.1643 15.5314C22.8114 15.7672 22.5363 16.1024 22.3738 16.4946C22.2114 16.8868 22.1689 17.3183 22.2517 17.7346C22.3345 18.151 22.5389 18.5334 22.8391 18.8336C23.1392 19.1337 23.5217 19.3381 23.938 19.4209C24.3543 19.5037 24.7859 19.4612 25.178 19.2988C25.5702 19.1364 25.9054 18.8613 26.1412 18.5083C26.3771 18.1554 26.503 17.7404 26.503 17.3159C26.503 16.7467 26.2768 16.2008 25.8743 15.7983C25.4718 15.3958 24.9259 15.1697 24.3567 15.1697ZM24.3567 18.389C24.1445 18.389 23.937 18.3261 23.7605 18.2082C23.584 18.0903 23.4465 17.9227 23.3653 17.7266C23.284 17.5305 23.2628 17.3147 23.3042 17.1066C23.3456 16.8984 23.4478 16.7072 23.5979 16.5571C23.748 16.407 23.9392 16.3048 24.1473 16.2634C24.3555 16.222 24.5713 16.2433 24.7674 16.3245C24.9635 16.4057 25.1311 16.5433 25.249 16.7197C25.3669 16.8962 25.4298 17.1037 25.4298 17.3159C25.4298 17.6005 25.3168 17.8735 25.1155 18.0747C24.9143 18.276 24.6413 18.389 24.3567 18.389Z" fill="#1F3965"/>
<path d="M28.61 20.0749L28.1523 19.3125C28.2746 19.081 28.3751 18.8386 28.4528 18.5886L29.3145 18.374C29.4308 18.345 29.5341 18.2779 29.6078 18.1834C29.6815 18.0888 29.7215 17.9724 29.7213 17.8525V16.7794C29.7212 16.6597 29.6812 16.5434 29.6075 16.4491C29.5338 16.3548 29.4307 16.2879 29.3145 16.2589L28.4528 16.0443C28.3751 15.7943 28.2746 15.552 28.1523 15.3204L28.61 14.558C28.6716 14.4553 28.6971 14.335 28.6824 14.2162C28.6677 14.0974 28.6137 13.9869 28.529 13.9023L27.7703 13.1425C27.6857 13.0578 27.5752 13.0038 27.4564 12.9891C27.3376 12.9745 27.2173 12.9999 27.1146 13.0615L26.3522 13.5192C26.1207 13.397 25.8784 13.2964 25.6284 13.2187L25.4137 12.357C25.3847 12.2407 25.3176 12.1374 25.2231 12.0637C25.1285 11.99 25.0121 11.9501 24.8922 11.9503H23.8191C23.6994 11.9503 23.5831 11.9904 23.4888 12.0641C23.3945 12.1378 23.3276 12.2409 23.2986 12.357L23.084 13.2187C22.834 13.2964 22.5917 13.397 22.3601 13.5192L21.5977 13.0615C21.495 12.9999 21.3747 12.9745 21.2559 12.9891C21.1371 13.0038 21.0266 13.0578 20.942 13.1425L20.1822 13.9012C20.0975 13.9858 20.0435 14.0963 20.0288 14.2151C20.0142 14.3339 20.0396 14.4542 20.1012 14.5569L20.5589 15.3194C20.4367 15.5509 20.3361 15.7932 20.2584 16.0432L19.3967 16.2578C19.2804 16.2868 19.1772 16.3539 19.1034 16.4485C19.0297 16.543 18.9898 16.6595 18.99 16.7794V17.8525C18.99 17.9722 19.0301 18.0884 19.1038 18.1827C19.1775 18.277 19.2806 18.344 19.3967 18.3729L20.2584 18.5876C20.3361 18.8376 20.4367 19.0799 20.5589 19.3114L20.1012 20.0739C20.0396 20.1765 20.0142 20.2968 20.0288 20.4156C20.0435 20.5345 20.0975 20.6449 20.1822 20.7295L20.9409 21.4882C21.0255 21.573 21.136 21.6269 21.2548 21.6416C21.3736 21.6563 21.4939 21.6308 21.5966 21.5693L22.3591 21.1116C22.5906 21.2338 22.8329 21.3344 23.0829 21.412L23.2975 22.2738C23.3263 22.3903 23.3934 22.4938 23.4879 22.5677C23.5824 22.6416 23.699 22.6817 23.8191 22.6816H24.8922C25.0119 22.6815 25.1281 22.6415 25.2224 22.5678C25.3167 22.4941 25.3837 22.391 25.4127 22.2748L25.6273 21.4131C25.8773 21.3354 26.1196 21.2348 26.3511 21.1126L27.1136 21.5703C27.2162 21.6319 27.3365 21.6574 27.4553 21.6427C27.5742 21.628 27.6846 21.574 27.7692 21.4893L28.5279 20.7306C28.6128 20.6461 28.667 20.5357 28.6819 20.4169C28.6968 20.2981 28.6715 20.1777 28.61 20.0749ZM27.4934 18.0263C27.413 18.3833 27.2718 18.7238 27.076 19.0329C27.0229 19.1169 26.9942 19.2141 26.993 19.3134C26.9919 19.4128 27.0184 19.5106 27.0696 19.5958L27.4741 20.2697L27.3078 20.436L26.6339 20.0315C26.5487 19.9803 26.4509 19.9538 26.3515 19.955C26.2521 19.9561 26.155 19.9848 26.071 20.0379C25.7624 20.2336 25.4225 20.3748 25.066 20.4554C24.9691 20.4772 24.8802 20.5256 24.8091 20.595C24.7381 20.6645 24.6877 20.7523 24.6636 20.8487L24.4731 21.6084H24.2381L24.0476 20.847C24.0235 20.7507 23.9732 20.6628 23.9021 20.5934C23.8311 20.524 23.7421 20.4756 23.6452 20.4537C23.2882 20.3733 22.9477 20.2321 22.6386 20.0363C22.5546 19.9832 22.4575 19.9545 22.3581 19.9533C22.2587 19.9522 22.161 19.9787 22.0758 20.0299L21.4018 20.4344L21.2355 20.2681L21.6401 19.5942C21.6912 19.5093 21.7178 19.4119 21.7169 19.3129C21.716 19.2138 21.6878 19.1169 21.6352 19.0329C21.4396 18.7243 21.2984 18.3844 21.2178 18.0279C21.1959 17.931 21.1476 17.8421 21.0781 17.771C21.0087 17.7 20.9209 17.6496 20.8245 17.6255L20.0631 17.4334V17.1984L20.8245 17.0079C20.9209 16.9838 21.0087 16.9335 21.0781 16.8624C21.1476 16.7914 21.1959 16.7024 21.2178 16.6055C21.2982 16.2485 21.4394 15.908 21.6352 15.5989C21.6883 15.5149 21.7171 15.4178 21.7182 15.3184C21.7193 15.219 21.6928 15.1213 21.6417 15.0361L21.2371 14.3648L21.4035 14.1985L22.0774 14.6031C22.1625 14.6537 22.26 14.6799 22.3591 14.6785C22.4581 14.6772 22.5549 14.6485 22.6386 14.5955C22.9472 14.3999 23.2872 14.2587 23.6436 14.1781C23.7405 14.1562 23.8295 14.1079 23.9005 14.0384C23.9716 13.969 24.0219 13.8812 24.046 13.7848L24.2381 13.0234H24.4731L24.6636 13.7848C24.6877 13.8812 24.7381 13.969 24.8091 14.0384C24.8802 14.1079 24.9691 14.1562 25.066 14.1781C25.4225 14.2587 25.7624 14.3999 26.071 14.5955C26.155 14.6486 26.2521 14.6774 26.3515 14.6785C26.4509 14.6796 26.5487 14.6531 26.6339 14.602L27.3078 14.1974L27.4741 14.3637L27.0696 15.0377C27.0187 15.1227 26.9924 15.2201 26.9935 15.3192C26.9947 15.4183 27.0232 15.5151 27.076 15.5989C27.2717 15.9075 27.4129 16.2475 27.4934 16.6039C27.5153 16.7008 27.5637 16.7898 27.6331 16.8608C27.7026 16.9319 27.7904 16.9822 27.8867 17.0063L28.6481 17.1984V17.4334L27.8867 17.6239C27.7904 17.648 27.7026 17.6984 27.6331 17.7694C27.5637 17.8405 27.5153 17.9294 27.4934 18.0263Z" fill="#1F3965"/>
<path d="M17.9167 16.7794H16.8429V17.8532H17.9167V16.7794Z" fill="#1F3965"/>
<path d="M17.9973 18.4643L16.9601 18.7422L17.238 19.7795L18.2753 19.5015L17.9973 18.4643Z" fill="#1F3965"/>
<path d="M18.5146 20.0699L17.5846 20.6067L18.1214 21.5368L19.0515 20.9999L18.5146 20.0699Z" fill="#1F3965"/>
<path d="M19.4233 21.4884L18.6639 22.2477L19.4233 23.0071L20.1826 22.2477L19.4233 21.4884Z" fill="#1F3965"/>
<path d="M29.2878 21.4887L28.5284 22.248L29.2878 23.0074L30.0471 22.248L29.2878 21.4887Z" fill="#1F3965"/>
<path d="M30.2013 20.0704L29.6644 21.0004L30.5945 21.5373L31.1313 20.6073L30.2013 20.0704Z" fill="#1F3965"/>
<path d="M30.7173 18.4638L30.4393 19.5011L31.4766 19.779L31.7545 18.7417L30.7173 18.4638Z" fill="#1F3965"/>
<path d="M31.8684 16.7794H30.7946V17.8532H31.8684V16.7794Z" fill="#1F3965"/>
<path d="M31.4766 14.8528L30.4393 15.1308L30.7173 16.168L31.7545 15.8901L31.4766 14.8528Z" fill="#1F3965"/>
<path d="M30.5945 13.095L29.6644 13.6318L30.2013 14.5618L31.1313 14.025L30.5945 13.095Z" fill="#1F3965"/>
<path d="M29.2878 11.6248L28.5284 12.3842L29.2878 13.1435L30.0471 12.3842L29.2878 11.6248Z" fill="#1F3965"/>
<path d="M19.4233 11.6245L18.6639 12.3839L19.4233 13.1432L20.1826 12.3839L19.4233 11.6245Z" fill="#1F3965"/>
<path d="M18.1214 13.0948L17.5846 14.0248L18.5146 14.5616L19.0515 13.6316L18.1214 13.0948Z" fill="#1F3965"/>
<path d="M17.238 14.8524L16.9601 15.8897L17.9973 16.1676L18.2753 15.1304L17.238 14.8524Z" fill="#1F3965"/>
</svg>
